<svg xmlns="http://www.w3.org/2000/svg" viewBox="0 0 550.84 91.37">
  <defs>
    <style>
      .cls-1 {
        font-size: 86.73px;
        font-family: Montserrat-Hairline, Montserrat;
        <!--letter-spacing: -0.02em;-->
        fill: white;
      }

      .cls-2 {
        <!--letter-spacing: -0.03em;-->
        fill: white
      }
    </style>
  </defs>
  <title>Zasób 2</title>
  <g id="Warstwa_2" data-name="Warstwa 2">
    <g id="Warstwa_1-2" data-name="Warstwa 1">
      <text class="cls-1" transform="translate(222.41 73.68)">software</text>
      <path d="M37.08,67.22V43.34a14.24,14.24,0,0,0-1.4-6.69,10.91,10.91,0,0,0-3.76-4.19,14.73,14.73,0,0,0-5.58-2.12,38.61,38.61,0,0,0-6.88-.58,27.27,27.27,0,0,0-6.12.67,19.47,19.47,0,0,0-5.25,2,11.25,11.25,0,0,0-3.71,3.27A7.58,7.58,0,0,0,3,40.16a5.33,5.33,0,0,0,.53,2.6,4.26,4.26,0,0,0,1.3,1.5,4.16,4.16,0,0,0,1.78.67,14.85,14.85,0,0,0,2,.14c.45,0,1,0,1.69,0a5.48,5.48,0,0,0,1.92-.43,4.19,4.19,0,0,0,1.59-1.2,3.47,3.47,0,0,0,.68-2.27c0-.19,0-.54-.1-1.06s-.13-1.06-.19-1.63S14,37.32,14,36.84a8,8,0,0,1-.1-1c0-1.8.54-3,1.64-3.71a7.2,7.2,0,0,1,3.85-1c2.31,0,3.88.7,4.72,2.12A9.13,9.13,0,0,1,25.33,38v5.87a7.31,7.31,0,0,1-.53,3,5.28,5.28,0,0,1-1.88,2.07,15.73,15.73,0,0,1-3.8,1.73c-1.64.55-3.77,1.2-6.41,2q-2.4.78-4.67,1.59a16,16,0,0,0-4,2.12,10.57,10.57,0,0,0-2.89,3.18A9,9,0,0,0,0,64.14a8.13,8.13,0,0,0,1.25,4.58,8.75,8.75,0,0,0,3.28,2.93A16.12,16.12,0,0,0,9,73.19a24.08,24.08,0,0,0,4.72.48c3.4,0,6-.44,7.8-1.35a9.28,9.28,0,0,0,4.23-5.2h.2a7.42,7.42,0,0,0,2.93,4.82c1.58,1.16,4,1.71,7.27,1.73.35,0,.65,0,1,0Zm-11.75-6A17,17,0,0,1,24.75,66a9.16,9.16,0,0,1-1.54,3.18A6.25,6.25,0,0,1,21,71a5.68,5.68,0,0,1-2.45.58,5.39,5.39,0,0,1-3.47-1,6.54,6.54,0,0,1-1.88-2.46,10.14,10.14,0,0,1-.77-3c-.09-1-.14-1.92-.14-2.69a10.56,10.56,0,0,1,.91-4.72A10,10,0,0,1,15.6,54.6a13.1,13.1,0,0,1,3.28-2.06c1.21-.55,2.44-1.11,3.66-1.69a7.74,7.74,0,0,0,1.87-1.2,2.92,2.92,0,0,0,.73-1.11h.19Z" fill="white"/>
      <polygon points="217.37 29.76 207.56 56.15 207.51 56.15 205.59 61.35 206.39 53.66 197.04 29.76 184.6 29.76 186.91 35.65 179.31 56.15 179.26 56.15 177.34 61.35 178.14 53.65 168.8 29.76 156.36 29.76 158.67 35.66 155.53 44.12 149.17 61.35 149.96 53.8 140.56 29.76 140.56 29.76 128.12 29.76 128.11 29.76 130.43 35.65 122.82 56.15 122.76 56.15 120.84 61.35 121.65 53.63 112.31 29.76 112.31 29.76 99.87 29.76 99.87 29.76 102.18 35.66 96.93 49.82 92.67 61.35 93.46 53.78 84.07 29.76 71.63 29.76 73.94 35.65 66.34 56.15 66.26 56.15 64.34 61.35 65.15 53.6 55.82 29.76 43.38 29.76 60.65 73.67 61.33 73.67 74.72 37.64 88.9 73.67 89.57 73.67 102.96 37.66 117.14 73.67 117.14 73.67 117.82 73.67 117.82 73.67 131.2 37.66 144.42 71.22 145.39 73.67 145.39 73.67 146.06 73.67 146.06 73.67 159.46 37.7 173.63 73.67 174.3 73.67 187.69 37.66 201.88 73.67 202.55 73.67 218.91 29.76 217.37 29.76" fill="white"/>
      <circle cx="217.05" cy="71.81" r="1.86" fill="white"/>
    </g>
  </g>
</svg>


